<svg width="25" height="24" viewBox="0 0 25 24" fill="none" xmlns="http://www.w3.org/2000/svg">
<path d="M5.69994 10.4599C5.50994 10.4599 5.30994 10.3799 5.16994 10.2399C4.95994 10.0199 4.88994 9.69988 5.00994 9.41988L6.86994 4.97988C6.90994 4.88988 6.92994 4.82988 6.95994 4.77988C8.43994 1.36988 10.3299 0.539877 13.6699 1.81988C13.8599 1.88988 14.0099 2.03988 14.0899 2.22988C14.1699 2.41988 14.1699 2.62988 14.0899 2.81988L11.1599 9.61988C11.0399 9.89988 10.7699 10.0699 10.4699 10.0699H7.61994C7.04994 10.0699 6.50994 10.1799 5.98994 10.3999C5.89994 10.4399 5.79994 10.4599 5.69994 10.4599ZM11.1099 2.74988C9.86994 2.74988 9.10994 3.55988 8.31994 5.39988C8.30994 5.42988 8.28994 5.45988 8.27994 5.48988L6.96994 8.59988C7.18994 8.57988 7.39994 8.56988 7.61994 8.56988H9.96994L12.3799 2.96988C11.9099 2.81988 11.4899 2.74988 11.1099 2.74988Z" fill="#374151"/>
<path d="M18.79 10.2702C18.72 10.2702 18.64 10.2602 18.57 10.2402C18.19 10.1302 17.79 10.0702 17.37 10.0702H10.47C10.22 10.0702 9.97998 9.94024 9.83998 9.73024C9.70998 9.52024 9.67998 9.25024 9.77998 9.02024L12.68 2.29024C12.83 1.93024 13.27 1.68024 13.64 1.81024C13.76 1.85024 13.87 1.90024 13.99 1.95024L16.35 2.94024C17.73 3.51024 18.65 4.11024 19.25 4.83024C19.37 4.97024 19.47 5.12024 19.57 5.28024C19.68 5.45024 19.78 5.65024 19.85 5.86024C19.88 5.93024 19.93 6.06024 19.96 6.20024C20.24 7.15024 20.1 8.31024 19.5 9.81024C19.37 10.0902 19.09 10.2702 18.79 10.2702ZM11.61 8.57024H17.38C17.7 8.57024 18.01 8.60024 18.32 8.65024C18.6 7.78024 18.66 7.11024 18.5 6.57024C18.48 6.48024 18.46 6.44024 18.45 6.40024C18.39 6.24024 18.35 6.15024 18.3 6.07024C18.23 5.96024 18.18 5.87024 18.1 5.78024C17.67 5.26024 16.91 4.78024 15.77 4.31024L13.8 3.49024L11.61 8.57024Z" fill="#374151"/>
<path d="M16.4 22.7503H8.6C8.32 22.7503 8.06 22.7303 7.8 22.7003C4.29 22.4703 2.29 20.4603 2.05 16.9103C2.02 16.6903 2 16.4203 2 16.1503V14.2003C2 11.9503 3.34 9.92031 5.41 9.02031C6.12 8.72031 6.86 8.57031 7.63 8.57031H17.39C17.96 8.57031 18.51 8.65031 19.02 8.81031C21.37 9.52031 23.02 11.7403 23.02 14.2003V16.1503C23.02 16.3703 23.01 16.5803 23 16.7803C22.78 20.6903 20.5 22.7503 16.4 22.7503ZM7.62 10.0703C7.05 10.0703 6.51 10.1803 5.99 10.4003C4.47 11.0603 3.49 12.5503 3.49 14.2003V16.1503C3.49 16.3603 3.51 16.5703 3.53 16.7703C3.72 19.6203 5.12 21.0203 7.93 21.2103C8.18 21.2403 8.38 21.2603 8.59 21.2603H16.39C19.69 21.2603 21.31 19.8103 21.47 16.7103C21.48 16.5303 21.49 16.3503 21.49 16.1503V14.2003C21.49 12.3903 20.28 10.7703 18.56 10.2403C18.18 10.1303 17.78 10.0703 17.36 10.0703H7.62Z" fill="#374151"/>
<path d="M2.73999 14.9498C2.32999 14.9498 1.98999 14.6098 1.98999 14.1998V11.2698C1.98999 8.1198 4.21999 5.3998 7.29999 4.7998C7.56999 4.7498 7.84999 4.8498 8.02999 5.0598C8.19999 5.2698 8.24999 5.5698 8.13999 5.8198L6.38999 9.9998C6.30999 10.1798 6.16999 10.3198 5.99999 10.3998C4.47999 11.0598 3.49999 12.5498 3.49999 14.1998C3.48999 14.6098 3.15999 14.9498 2.73999 14.9498ZM6.09999 6.8198C4.81999 7.5398 3.88999 8.7998 3.59999 10.2698C4.03999 9.8198 4.54999 9.4398 5.12999 9.1598L6.09999 6.8198Z" fill="#374151"/>
<path d="M22.26 14.9498C21.85 14.9498 21.51 14.6098 21.51 14.1998C21.51 12.3898 20.3 10.7698 18.58 10.2398C18.38 10.1798 18.21 10.0398 18.12 9.84978C18.03 9.65978 18.02 9.43978 18.1 9.24978C18.57 8.07978 18.69 7.22978 18.5 6.56978C18.48 6.47978 18.46 6.43978 18.45 6.39978C18.32 6.10978 18.39 5.76978 18.62 5.54978C18.85 5.32978 19.2 5.27978 19.48 5.42978C21.66 6.56978 23.01 8.80978 23.01 11.2698V14.1998C23.01 14.6098 22.67 14.9498 22.26 14.9498ZM19.75 9.08978C20.38 9.37978 20.94 9.78978 21.41 10.2798C21.22 9.29978 20.75 8.40978 20.06 7.70978C20.01 8.12978 19.91 8.58978 19.75 9.08978Z" fill="#374151"/>
</svg>
