<svg width="25" height="24" viewBox="0 0 25 24" fill="none" xmlns="http://www.w3.org/2000/svg">
<g filter="url(#filter0_iiii_14_8329)">
<path d="M8 4.2099L12.5 6.8099L17 4.2099M8 19.7899V14.5999L3.5 11.9999M21.5 11.9999L17 14.5999V19.7899M3.77 6.9599L12.5 12.0099L21.23 6.9599M12.5 22.0799V11.9999M21.5 15.9999V7.9999C21.4996 7.64918 21.4071 7.30471 21.2315 7.00106C21.056 6.69742 20.8037 6.44526 20.5 6.2699L13.5 2.2699C13.196 2.09437 12.8511 2.00195 12.5 2.00195C12.1489 2.00195 11.804 2.09437 11.5 2.2699L4.5 6.2699C4.19626 6.44526 3.94398 6.69742 3.76846 7.00106C3.59294 7.30471 3.50036 7.64918 3.5 7.9999V15.9999C3.50036 16.3506 3.59294 16.6951 3.76846 16.9987C3.94398 17.3024 4.19626 17.5545 4.5 17.7299L11.5 21.7299C11.804 21.9054 12.1489 21.9979 12.5 21.9979C12.8511 21.9979 13.196 21.9054 13.5 21.7299L20.5 17.7299C20.8037 17.5545 21.056 17.3024 21.2315 16.9987C21.4071 16.6951 21.4996 16.3506 21.5 15.9999Z" stroke="#560BAD" stroke-width="3" stroke-linecap="round" stroke-linejoin="round"/>
</g>
<defs>
<filter id="filter0_iiii_14_8329" x="0.999756" y="0.501953" width="24.0005" height="24.0781" filterUnits="userSpaceOnUse" color-interpolation-filters="sRGB">
<feFlood flood-opacity="0" result="BackgroundImageFix"/>
<feBlend mode="normal" in="SourceGraphic" in2="BackgroundImageFix" result="shape"/>
<feColorMatrix in="SourceAlpha" type="matrix" values="0 0 0 0 0 0 0 0 0 0 0 0 0 0 0 0 0 0 127 0" result="hardAlpha"/>
<feOffset/>
<feGaussianBlur stdDeviation="0.25"/>
<feComposite in2="hardAlpha" operator="arithmetic" k2="-1" k3="1"/>
<feColorMatrix type="matrix" values="0 0 0 0 1 0 0 0 0 1 0 0 0 0 1 0 0 0 0.3 0"/>
<feBlend mode="normal" in2="shape" result="effect1_innerShadow_14_8329"/>
<feColorMatrix in="SourceAlpha" type="matrix" values="0 0 0 0 0 0 0 0 0 0 0 0 0 0 0 0 0 0 127 0" result="hardAlpha"/>
<feOffset dx="-1" dy="1"/>
<feGaussianBlur stdDeviation="1"/>
<feComposite in2="hardAlpha" operator="arithmetic" k2="-1" k3="1"/>
<feColorMatrix type="matrix" values="0 0 0 0 1 0 0 0 0 1 0 0 0 0 1 0 0 0 0.25 0"/>
<feBlend mode="normal" in2="effect1_innerShadow_14_8329" result="effect2_innerShadow_14_8329"/>
<feColorMatrix in="SourceAlpha" type="matrix" values="0 0 0 0 0 0 0 0 0 0 0 0 0 0 0 0 0 0 127 0" result="hardAlpha"/>
<feOffset dx="2"/>
<feGaussianBlur stdDeviation="2"/>
<feComposite in2="hardAlpha" operator="arithmetic" k2="-1" k3="1"/>
<feColorMatrix type="matrix" values="0 0 0 0 0.220833 0 0 0 0 0.220833 0 0 0 0 0.220833 0 0 0 0.28 0"/>
<feBlend mode="normal" in2="effect2_innerShadow_14_8329" result="effect3_innerShadow_14_8329"/>
<feColorMatrix in="SourceAlpha" type="matrix" values="0 0 0 0 0 0 0 0 0 0 0 0 0 0 0 0 0 0 127 0" result="hardAlpha"/>
<feOffset dx="1" dy="1"/>
<feGaussianBlur stdDeviation="1.5"/>
<feComposite in2="hardAlpha" operator="arithmetic" k2="-1" k3="1"/>
<feColorMatrix type="matrix" values="0 0 0 0 0.2 0 0 0 0 0.199167 0 0 0 0 0.199217 0 0 0 0.1 0"/>
<feBlend mode="normal" in2="effect3_innerShadow_14_8329" result="effect4_innerShadow_14_8329"/>
</filter>
</defs>
</svg>
