<svg width="17" height="16" viewBox="0 0 17 16" fill="none" xmlns="http://www.w3.org/2000/svg">
<path d="M8.49995 10.8866C6.90661 10.8866 5.61328 9.59328 5.61328 7.99995C5.61328 6.40661 6.90661 5.11328 8.49995 5.11328C10.0933 5.11328 11.3866 6.40661 11.3866 7.99995C11.3866 9.59328 10.0933 10.8866 8.49995 10.8866ZM8.49995 6.11328C7.45995 6.11328 6.61328 6.95995 6.61328 7.99995C6.61328 9.03995 7.45995 9.88661 8.49995 9.88661C9.53995 9.88661 10.3866 9.03995 10.3866 7.99995C10.3866 6.95995 9.53995 6.11328 8.49995 6.11328Z" fill="white"/>
<path d="M8.49997 14.013C5.9933 14.013 3.62664 12.5463 1.99997 9.99966C1.2933 8.89966 1.2933 7.10633 1.99997 5.99966C3.6333 3.45299 5.99997 1.98633 8.49997 1.98633C11 1.98633 13.3666 3.45299 14.9933 5.99966C15.7 7.09966 15.7 8.893 14.9933 9.99966C13.3666 12.5463 11 14.013 8.49997 14.013ZM8.49997 2.98633C6.34664 2.98633 4.28664 4.27966 2.84664 6.53966C2.34664 7.31966 2.34664 8.67966 2.84664 9.45966C4.28664 11.7197 6.34664 13.013 8.49997 13.013C10.6533 13.013 12.7133 11.7197 14.1533 9.45966C14.6533 8.67966 14.6533 7.31966 14.1533 6.53966C12.7133 4.27966 10.6533 2.98633 8.49997 2.98633Z" fill="white"/>
</svg>
