<svg width="25" height="24" viewBox="0 0 25 24" fill="none" xmlns="http://www.w3.org/2000/svg">
<path d="M12.62 13.5305C12.6 13.5305 12.57 13.5305 12.55 13.5305C12.52 13.5305 12.48 13.5305 12.45 13.5305C10.18 13.4605 8.47998 11.6905 8.47998 9.51047C8.47998 7.29047 10.29 5.48047 12.51 5.48047C14.73 5.48047 16.54 7.29047 16.54 9.51047C16.53 11.7005 14.82 13.4605 12.65 13.5305C12.63 13.5305 12.63 13.5305 12.62 13.5305ZM12.5 6.97047C11.1 6.97047 9.96998 8.11047 9.96998 9.50047C9.96998 10.8705 11.04 11.9805 12.4 12.0305C12.43 12.0205 12.53 12.0205 12.63 12.0305C13.97 11.9605 15.02 10.8605 15.03 9.50047C15.03 8.11047 13.9 6.97047 12.5 6.97047Z" fill="#374151"/>
<path d="M12.5 22.7503C9.80996 22.7503 7.23996 21.7503 5.24996 19.9303C5.06996 19.7703 4.98996 19.5303 5.00996 19.3003C5.13996 18.1103 5.87996 17.0003 7.10996 16.1803C10.09 14.2003 14.92 14.2003 17.89 16.1803C19.12 17.0103 19.86 18.1103 19.99 19.3003C20.02 19.5403 19.93 19.7703 19.75 19.9303C17.76 21.7503 15.19 22.7503 12.5 22.7503ZM6.57996 19.1003C8.23996 20.4903 10.33 21.2503 12.5 21.2503C14.67 21.2503 16.76 20.4903 18.42 19.1003C18.24 18.4903 17.76 17.9003 17.05 17.4203C14.59 15.7803 10.42 15.7803 7.93996 17.4203C7.22996 17.9003 6.75996 18.4903 6.57996 19.1003Z" fill="#374151"/>
<path d="M12.5 22.75C6.57 22.75 1.75 17.93 1.75 12C1.75 6.07 6.57 1.25 12.5 1.25C18.43 1.25 23.25 6.07 23.25 12C23.25 17.93 18.43 22.75 12.5 22.75ZM12.5 2.75C7.4 2.75 3.25 6.9 3.25 12C3.25 17.1 7.4 21.25 12.5 21.25C17.6 21.25 21.75 17.1 21.75 12C21.75 6.9 17.6 2.75 12.5 2.75Z" fill="#374151"/>
</svg>
