<svg width="25" height="24" viewBox="0 0 25 24" fill="none" xmlns="http://www.w3.org/2000/svg">
<g clip-path="url(#clip0_14_8332)">
<path d="M11.9212 0C10.1811 0 8.7655 1.41567 8.7655 3.15571C8.7655 4.89575 10.1811 6.31146 11.9212 6.31146C13.6613 6.31146 15.077 4.89579 15.077 3.15575C15.077 1.41571 13.6613 0 11.9212 0ZM11.9212 4.88567C10.9673 4.88567 10.1913 4.10961 10.1913 3.15575C10.1913 2.2019 10.9673 1.42584 11.9212 1.42584C12.8751 1.42584 13.6512 2.2019 13.6512 3.15575C13.6512 4.10961 12.8751 4.88567 11.9212 4.88567Z" fill="#374151"/>
<path d="M14.5436 8.79102H9.29858V10.2168H14.5436V8.79102Z" fill="#374151"/>
<path d="M5.85719 10.9561C5.4386 10.9561 5.09814 11.2966 5.09814 11.7151C5.09814 12.1337 5.43869 12.4742 5.85719 12.4742C6.27573 12.4742 6.61623 12.1336 6.61623 11.7151C6.61633 11.2966 6.27578 10.9561 5.85719 10.9561Z" fill="#374151"/>
<path d="M23.0741 10.5377V11.6013C23.0741 12.407 22.566 13.096 21.8537 13.3657C21.4375 9.66139 18.2865 6.77236 14.4729 6.77236H9.70228C9.58392 6.77236 9.46504 6.77522 9.34603 6.78089C8.79319 5.64094 7.62319 4.88574 6.32377 4.88574H5.61086V8.00029C4.43158 8.7802 3.49511 9.884 2.91912 11.1716H0.5V17.2291H2.91832C3.352 18.1977 3.99433 19.071 4.79556 19.7762C5.58545 20.4714 6.51741 20.992 7.51739 21.3V23.9999H11.6261V21.6283H12.5491V23.9999H16.6578V21.3008C18.0572 20.8692 19.3156 20.0219 20.2454 18.8752C21.1781 17.7249 21.7446 16.3124 21.8729 14.8416C23.3715 14.5251 24.5 13.1927 24.5 11.6013V10.5376H23.0741V10.5377ZM19.1378 17.9772C18.2874 19.0259 17.0982 19.7647 15.7892 20.0575L15.2319 20.1821V22.5742H13.9748V20.2026H10.2002V22.5742H8.94305V20.1813L8.3858 20.0567C7.40879 19.8381 6.49299 19.371 5.73746 18.706C4.98695 18.0455 4.40913 17.2033 4.06638 16.2704L3.89481 15.8033H1.92579V12.5974H3.89575L4.06736 12.1305C4.54792 10.8231 5.47679 9.71558 6.68293 9.01204L7.0366 8.80574V6.44869C7.58583 6.66788 8.02088 7.13358 8.18513 7.72664L8.34924 8.31914L8.95945 8.2439C9.20554 8.21357 9.45543 8.1982 9.70223 8.1982H14.4728C17.7824 8.1982 20.475 10.8908 20.475 14.2004C20.475 15.5724 20.0002 16.9138 19.1378 17.9772Z" fill="#374151"/>
</g>
<defs>
<clipPath id="clip0_14_8332">
<rect width="24" height="24" fill="white" transform="translate(0.5)"/>
</clipPath>
</defs>
</svg>
